<svg width="24" height="24" viewBox="0 0 24 24" fill="none" xmlns="http://www.w3.org/2000/svg">
<path fill-rule="evenodd" clip-rule="evenodd" d="M21.6 12.0004C21.6 17.3023 17.3019 21.6004 12 21.6004C6.69807 21.6004 2.4 17.3023 2.4 12.0004C2.4 6.69846 6.69807 2.40039 12 2.40039C17.3019 2.40039 21.6 6.69846 21.6 12.0004ZM16.1719 17.8692C14.9949 18.7074 13.555 19.2004 12 19.2004C8.02355 19.2004 4.8 15.9768 4.8 12.0004C4.8 10.4454 5.29297 9.00546 6.13117 7.82846L16.1719 17.8692ZM17.869 16.1721L7.82825 6.13143C9.00521 5.29332 10.445 4.80039 12 4.80039C15.9765 4.80039 19.2 8.02394 19.2 12.0004C19.2 13.5554 18.7071 14.9952 17.869 16.1721Z" fill="#515151"/>
</svg>
