<svg width="25" height="24" viewBox="0 0 25 24" fill="none" xmlns="http://www.w3.org/2000/svg">
<path d="M13.2162 2.53152C12.8702 1.87752 11.7942 1.87752 11.4482 2.53152L2.44823 19.5315C2.36722 19.6839 2.32705 19.8546 2.33165 20.0272C2.33625 20.1997 2.38546 20.368 2.47449 20.5159C2.56351 20.6637 2.68931 20.786 2.83963 20.8707C2.98995 20.9555 3.15966 20.9998 3.33223 20.9995H21.3322C21.5047 20.9999 21.6743 20.9555 21.8245 20.8708C21.9747 20.7861 22.1004 20.6639 22.1894 20.5162C22.2783 20.3684 22.3274 20.2002 22.332 20.0278C22.3365 19.8554 22.2963 19.6847 22.2152 19.5325L13.2162 2.53152ZM13.3322 17.9995H11.3322V15.9995H13.3322V17.9995ZM11.3322 13.9995V8.99952H13.3322L13.3332 13.9995H11.3322Z" fill="#B3C6E1"/>
</svg>
