<svg width="25" height="24" viewBox="0 0 25 24" fill="none" xmlns="http://www.w3.org/2000/svg">
<path d="M12.3323 2.40039C11.6696 2.40039 11.1323 2.93765 11.1323 3.60039V4.80039C11.1323 5.46313 11.6696 6.00039 12.3323 6.00039C12.995 6.00039 13.5323 5.46313 13.5323 4.80039V3.60039C13.5323 2.93765 12.995 2.40039 12.3323 2.40039Z" fill="#B3C6E1"/>
<path fill-rule="evenodd" clip-rule="evenodd" d="M5.1323 4.80039H8.7323C8.7323 6.78862 10.3441 8.40039 12.3323 8.40039C14.3205 8.40039 15.9323 6.78862 15.9323 4.80039H19.5323C20.8578 4.80039 21.9323 5.87491 21.9323 7.20039V18.0004C21.9323 19.3259 20.8578 20.4004 19.5323 20.4004H5.1323C3.80682 20.4004 2.7323 19.3259 2.7323 18.0004V7.20039C2.7323 5.87491 3.80682 4.80039 5.1323 4.80039ZM8.1323 13.2004C9.12641 13.2004 9.9323 12.3945 9.9323 11.4004C9.9323 10.4063 9.12641 9.60039 8.1323 9.60039C7.13819 9.60039 6.3323 10.4063 6.3323 11.4004C6.3323 12.3945 7.13819 13.2004 8.1323 13.2004ZM11.0729 18.0004C11.1122 17.8065 11.1329 17.6059 11.1329 17.4004C11.1329 15.7435 9.78974 14.4004 8.13289 14.4004C6.47603 14.4004 5.13289 15.7435 5.13289 17.4004C5.13289 17.6059 5.15354 17.8065 5.1929 18.0004H11.0729ZM14.7323 10.8004C14.0696 10.8004 13.5323 11.3376 13.5323 12.0004C13.5323 12.6631 14.0696 13.2004 14.7323 13.2004H18.3323C18.995 13.2004 19.5323 12.6631 19.5323 12.0004C19.5323 11.3376 18.995 10.8004 18.3323 10.8004H14.7323ZM13.5323 15.6004C13.5323 14.9376 14.0696 14.4004 14.7323 14.4004H17.1323C17.795 14.4004 18.3323 14.9376 18.3323 15.6004C18.3323 16.2631 17.795 16.8004 17.1323 16.8004H14.7323C14.0696 16.8004 13.5323 16.2631 13.5323 15.6004Z" fill="#B3C6E1"/>
</svg>
