<svg width="25" height="24" viewBox="0 0 25 24" fill="none" xmlns="http://www.w3.org/2000/svg">
<path fill-rule="evenodd" clip-rule="evenodd" d="M9.25802 16.39H14.6442C15.0501 16.39 15.3867 16.05 15.3867 15.64C15.3867 15.23 15.0501 14.9 14.6442 14.9H9.25802C8.85208 14.9 8.51544 15.23 8.51544 15.64C8.51544 16.05 8.85208 16.39 9.25802 16.39ZM12.6046 9.9H9.25802C8.85208 9.9 8.51544 10.24 8.51544 10.65C8.51544 11.06 8.85208 11.39 9.25802 11.39H12.6046C13.0105 11.39 13.3471 11.06 13.3471 10.65C13.3471 10.24 13.0105 9.9 12.6046 9.9ZM19.6703 9.02561C19.9031 9.02292 20.1565 9.02 20.3867 9.02C20.6343 9.02 20.8323 9.22 20.8323 9.47V17.51C20.8323 19.99 18.8422 22 16.3867 22H8.50554C5.93129 22 3.83228 19.89 3.83228 17.29V6.51C3.83228 4.03 5.83228 2 8.29762 2H13.5848C13.8422 2 14.0402 2.21 14.0402 2.46V5.68C14.0402 7.51 15.5352 9.01 17.3471 9.02C17.7703 9.02 18.1435 9.02316 18.47 9.02593C18.724 9.02809 18.9498 9.03 19.1491 9.03C19.29 9.03 19.4727 9.02789 19.6703 9.02561ZM19.9434 7.566C19.1295 7.569 18.1701 7.566 17.48 7.559C16.3849 7.559 15.483 6.648 15.483 5.542V2.906C15.483 2.475 16.0008 2.261 16.2968 2.572C16.8327 3.13476 17.5691 3.90834 18.3022 4.67837C19.0332 5.44632 19.7609 6.21074 20.283 6.759C20.5721 7.062 20.3602 7.565 19.9434 7.566Z" fill="#B3C6E1"/>
</svg>
