<svg width="27" height="28" viewBox="0 0 27 28" fill="none" xmlns="http://www.w3.org/2000/svg">
<path d="M6.71509 4.59961C5.23163 4.59961 4.02905 5.80219 4.02905 7.28565V9.97169C4.02905 11.4552 5.23163 12.6577 6.71509 12.6577H9.40113C10.8846 12.6577 12.0872 11.4552 12.0872 9.97169V7.28565C12.0872 5.80219 10.8846 4.59961 9.40113 4.59961H6.71509Z" fill="#B3C6E1"/>
<path d="M6.71509 15.3438C5.23163 15.3438 4.02905 16.5464 4.02905 18.0298V20.7159C4.02905 22.1993 5.23163 23.4019 6.71509 23.4019H9.40113C10.8846 23.4019 12.0872 22.1993 12.0872 20.7159V18.0298C12.0872 16.5464 10.8846 15.3438 9.40113 15.3438H6.71509Z" fill="#B3C6E1"/>
<path d="M14.7732 7.28565C14.7732 5.80219 15.9758 4.59961 17.4593 4.59961H20.1453C21.6288 4.59961 22.8313 5.80219 22.8313 7.28565V9.97169C22.8313 11.4552 21.6288 12.6577 20.1453 12.6577H17.4593C15.9758 12.6577 14.7732 11.4552 14.7732 9.97169V7.28565Z" fill="#B3C6E1"/>
<path d="M14.7732 18.0298C14.7732 16.5464 15.9758 15.3438 17.4593 15.3438H20.1453C21.6288 15.3438 22.8313 16.5464 22.8313 18.0298V20.7159C22.8313 22.1993 21.6288 23.4019 20.1453 23.4019H17.4593C15.9758 23.4019 14.7732 22.1993 14.7732 20.7159V18.0298Z" fill="#B3C6E1"/>
</svg>
