<svg width="57" height="57" viewBox="0 0 57 57" fill="none" xmlns="http://www.w3.org/2000/svg">
<circle cx="28.5" cy="28.5" r="28.5" fill="#DDF1E6"/>
<path d="M28 9C33.3043 9 38.3914 11.0545 42.1421 14.7114C45.8929 18.3684 48 23.3283 48 28.5C48 33.6717 45.8929 38.6316 42.1421 42.2886C38.3914 45.9455 33.3043 48 28 48C22.6957 48 17.6086 45.9455 13.8579 42.2886C10.1071 38.6316 8 33.6717 8 28.5C8 23.3283 10.1071 18.3684 13.8579 14.7114C17.6086 11.0545 22.6957 9 28 9ZM25.5086 32.3471L21.0657 28.0125C20.9064 27.8572 20.7174 27.734 20.5093 27.65C20.3011 27.5659 20.0781 27.5227 19.8529 27.5227C19.6276 27.5227 19.4046 27.5659 19.1965 27.65C18.9884 27.734 18.7993 27.8572 18.64 28.0125C18.3183 28.3261 18.1376 28.7515 18.1376 29.195C18.1376 29.6386 18.3183 30.0639 18.64 30.3776L24.2971 35.8933C24.456 36.0494 24.6449 36.1732 24.8531 36.2578C25.0612 36.3423 25.2845 36.3858 25.51 36.3858C25.7355 36.3858 25.9588 36.3423 26.1669 36.2578C26.3751 36.1732 26.564 36.0494 26.7229 35.8933L38.4371 24.4691C38.5985 24.3144 38.7269 24.1301 38.8149 23.9269C38.9029 23.7236 38.9488 23.5053 38.9498 23.2847C38.9509 23.0641 38.9071 22.8454 38.8211 22.6414C38.735 22.4373 38.6084 22.2519 38.4485 22.0958C38.2885 21.9397 38.0985 21.816 37.8893 21.7318C37.6801 21.6477 37.4559 21.6048 37.2296 21.6055C37.0033 21.6063 36.7794 21.6507 36.5708 21.7363C36.3622 21.8218 36.1731 21.9468 36.0143 22.104L25.5086 32.3471Z" fill="#53BB81"/>
</svg>
