<svg width="25" height="24" viewBox="0 0 25 24" fill="none" xmlns="http://www.w3.org/2000/svg">
<path fill-rule="evenodd" clip-rule="evenodd" d="M7.87845 3.27793C8.04464 3.39789 8.31264 3.67345 8.31264 3.67345C9.35306 4.64858 10.9201 7.07394 11.4234 8.30444C11.4339 8.30444 11.7323 9.03608 11.744 9.38409V9.43041C11.744 9.96371 11.4456 10.4626 10.9658 10.7179C10.768 10.8232 10.2868 10.9211 10.0547 10.9683C9.97783 10.984 9.92827 10.9941 9.92535 10.997C9.23954 11.1016 8.18742 11.1704 7.03231 11.1704C5.81985 11.1704 4.72208 11.1016 4.0468 10.9733C4.0351 10.9733 3.41834 10.8462 3.21236 10.7642C2.9151 10.6372 2.66348 10.4044 2.50314 10.1145C2.38845 9.88294 2.33228 9.63827 2.33228 9.38409C2.34281 9.11685 2.51485 8.618 2.59443 8.42083C3.09767 7.12026 4.74432 4.6367 5.7508 3.68532C5.85535 3.57922 5.97433 3.46806 6.05712 3.39071C6.1013 3.34945 6.13517 3.3178 6.15105 3.30169C6.40267 3.10452 6.71164 3 7.04401 3C7.3401 3 7.63736 3.09264 7.87845 3.27793ZM18.5609 10.1618C18.5609 10.6856 18.1431 11.1096 17.627 11.1096C17.1109 11.1096 16.6931 10.6856 16.6931 10.1618L16.4356 5.58295C16.4356 4.91543 16.9693 4.375 17.627 4.375C18.2847 4.375 18.8172 4.91543 18.8172 5.58295L18.5609 10.1618ZM21.4522 13.2356C21.7495 13.3639 22.0011 13.5955 22.1614 13.8853C22.2761 14.1169 22.3323 14.3616 22.3323 14.617C22.3217 14.883 22.1497 15.3831 22.069 15.5802C21.5669 16.8797 19.9191 19.3633 18.9138 20.3158C18.8109 20.4194 18.6942 20.5284 18.6116 20.6055L18.6115 20.6055C18.5653 20.6486 18.5299 20.6817 18.5135 20.6983C18.2607 20.8955 17.9529 21 17.6217 21C17.3233 21 17.026 20.9074 16.7861 20.7209C16.6199 20.6021 16.3519 20.3265 16.3519 20.3265C15.3103 19.3526 13.7444 16.926 13.2412 15.6954C13.2295 15.6954 12.9322 14.965 12.9205 14.617V14.5706C12.9205 14.0361 13.2178 13.5373 13.6988 13.2819C13.8962 13.1777 14.3758 13.0796 14.6084 13.0319L14.6085 13.0319C14.6861 13.016 14.7363 13.0058 14.7392 13.0028C15.425 12.8983 16.4771 12.8294 17.6322 12.8294C18.8447 12.8294 19.9425 12.8983 20.6177 13.0265C20.6283 13.0265 21.2462 13.1536 21.4522 13.2356ZM7.03781 12.8905C6.52169 12.8905 6.10389 13.3146 6.10389 13.8383L5.84641 18.4171C5.84641 19.0846 6.38008 19.625 7.03781 19.625C7.69553 19.625 8.22803 19.0846 8.22803 18.4171L7.97173 13.8383C7.97173 13.3146 7.55392 12.8905 7.03781 12.8905Z" fill="#B3C6E1"/>
</svg>
