<svg width="18" height="20" viewBox="0 0 18 20" fill="none" xmlns="http://www.w3.org/2000/svg">
<path fill-rule="evenodd" clip-rule="evenodd" d="M7.8 0.400391C7.34547 0.400391 6.92996 0.657193 6.72669 1.06373L5.85836 2.80039H1.8C1.13726 2.80039 0.599998 3.33765 0.599998 4.00039C0.599998 4.66313 1.13726 5.20039 1.8 5.20039L1.8 17.2004C1.8 18.5259 2.87452 19.6004 4.2 19.6004H13.8C15.1255 19.6004 16.2 18.5259 16.2 17.2004V5.20039C16.8627 5.20039 17.4 4.66313 17.4 4.00039C17.4 3.33765 16.8627 2.80039 16.2 2.80039H12.1416L11.2733 1.06373C11.07 0.657193 10.6545 0.400391 10.2 0.400391H7.8ZM5.4 7.60039C5.4 6.93765 5.93726 6.40039 6.6 6.40039C7.26274 6.40039 7.8 6.93765 7.8 7.60039V14.8004C7.8 15.4631 7.26274 16.0004 6.6 16.0004C5.93726 16.0004 5.4 15.4631 5.4 14.8004V7.60039ZM11.4 6.40039C10.7373 6.40039 10.2 6.93765 10.2 7.60039V14.8004C10.2 15.4631 10.7373 16.0004 11.4 16.0004C12.0627 16.0004 12.6 15.4631 12.6 14.8004V7.60039C12.6 6.93765 12.0627 6.40039 11.4 6.40039Z" fill="#FA5758"/>
</svg>
