<svg width="28" height="28" viewBox="0 0 28 28" fill="none" xmlns="http://www.w3.org/2000/svg">
<path d="M17.7913 8.62861C17.7913 10.8538 15.9874 12.6576 13.7623 12.6576C11.5371 12.6576 9.73329 10.8538 9.73329 8.62861C9.73329 6.40345 11.5371 4.59961 13.7623 4.59961C15.9874 4.59961 17.7913 6.40345 17.7913 8.62861Z" fill="#B3C6E1"/>
<path d="M24.5063 11.3146C24.5063 12.798 23.3037 14.0006 21.8203 14.0006C20.3369 14.0006 19.1343 12.798 19.1343 11.3146C19.1343 9.83117 20.3369 8.62861 21.8203 8.62861C23.3037 8.62861 24.5063 9.83117 24.5063 11.3146Z" fill="#B3C6E1"/>
<path d="M19.1343 20.7156C19.1343 17.7487 16.7292 15.3436 13.7623 15.3436C10.7954 15.3436 8.39029 17.7487 8.39029 20.7156V24.7446H19.1343V20.7156Z" fill="#B3C6E1"/>
<path d="M8.39029 11.3146C8.39029 12.798 7.18773 14.0006 5.70429 14.0006C4.22086 14.0006 3.01829 12.798 3.01829 11.3146C3.01829 9.83117 4.22086 8.62861 5.70429 8.62861C7.18773 8.62861 8.39029 9.83117 8.39029 11.3146Z" fill="#B3C6E1"/>
<path d="M21.8203 24.7446V20.7156C21.8203 19.2999 21.4552 17.9694 20.814 16.8133C21.1357 16.7306 21.4728 16.6866 21.8203 16.6866C24.0454 16.6866 25.8493 18.4905 25.8493 20.7156V24.7446H21.8203Z" fill="#B3C6E1"/>
<path d="M6.71055 16.8133C6.06938 17.9694 5.70429 19.2999 5.70429 20.7156V24.7446H1.67529V20.7156C1.67529 18.4905 3.47914 16.6866 5.70429 16.6866C6.05174 16.6866 6.38891 16.7306 6.71055 16.8133Z" fill="#B3C6E1"/>
</svg>
