<svg width="23" height="16" viewBox="0 0 23 16" fill="none" xmlns="http://www.w3.org/2000/svg">
<path d="M14.3325 10C11.6625 10 6.33252 11.33 6.33252 14V16H22.3325V14C22.3325 11.33 17.0025 10 14.3325 10ZM14.3325 8C15.3934 8 16.4108 7.57857 17.1609 6.82843C17.9111 6.07828 18.3325 5.06087 18.3325 4C18.3325 2.93913 17.9111 1.92172 17.1609 1.17157C16.4108 0.421427 15.3934 0 14.3325 0C13.2717 0 12.2542 0.421427 11.5041 1.17157C10.7539 1.92172 10.3325 2.93913 10.3325 4C10.3325 5.06087 10.7539 6.07828 11.5041 6.82843C12.2542 7.57857 13.2717 8 14.3325 8ZM4.33252 9.28L6.78252 10.77L6.13252 7.96L8.33252 6.08L5.44252 5.83L4.33252 3.19L3.20252 5.83L0.33252 6.08L2.51252 7.96L1.83252 10.77L4.33252 9.28Z" fill="#B3C6E1"/>
</svg>
