<svg width="25" height="24" viewBox="0 0 25 24" fill="none" xmlns="http://www.w3.org/2000/svg">
<path d="M21.7677 2.58198C21.2674 2.0686 20.5271 1.87734 19.8369 2.07866L3.74027 6.75952C3.01197 6.96186 2.49576 7.54269 2.35671 8.28055C2.21465 9.0315 2.71085 9.98479 3.35912 10.3834L8.39218 13.4768C8.90839 13.7939 9.57466 13.7144 10.0018 13.2835L15.7652 7.4843C16.0553 7.18231 16.5355 7.18231 16.8256 7.4843C17.1157 7.77623 17.1157 8.24935 16.8256 8.55134L11.0523 14.3516C10.6241 14.7814 10.5441 15.4508 10.8592 15.9702L13.9344 21.0538C14.2946 21.6577 14.9148 22 15.5951 22C15.6752 22 15.7652 22 15.8452 21.9899C16.6255 21.8893 17.2458 21.3558 17.4759 20.6008L22.2478 4.52479C22.4579 3.84028 22.2679 3.09537 21.7677 2.58198Z" fill="#B3C6E1"/>
</svg>
