<svg width="27" height="27" viewBox="0 0 27 27" fill="none" xmlns="http://www.w3.org/2000/svg">
<path d="M14.4945 2.84869C14.1052 2.11294 12.8947 2.11294 12.5055 2.84869L2.38045 21.9737C2.28931 22.1451 2.24412 22.3372 2.2493 22.5313C2.25448 22.7253 2.30984 22.9148 2.40999 23.0811C2.51014 23.2474 2.65167 23.3849 2.82078 23.4803C2.98989 23.5756 3.18081 23.6256 3.37495 23.6252H23.625C23.819 23.6256 24.0098 23.5757 24.1788 23.4804C24.3478 23.3851 24.4892 23.2477 24.5892 23.0814C24.6893 22.9152 24.7445 22.7259 24.7496 22.532C24.7547 22.338 24.7095 22.1461 24.6183 21.9748L14.4945 2.84869ZM14.625 20.2502H12.375V18.0002H14.625V20.2502ZM12.375 15.7502V10.1252H14.625L14.6261 15.7502H12.375Z" fill="#515151"/>
</svg>
