<svg width="23" height="21" viewBox="0 0 23 21" fill="none" xmlns="http://www.w3.org/2000/svg">
<path d="M11.5 0.699219C10.7544 0.699219 10.15 1.30363 10.15 2.04922V3.39922C10.15 4.1448 10.7544 4.74922 11.5 4.74922C12.2455 4.74922 12.85 4.1448 12.85 3.39922V2.04922C12.85 1.30363 12.2455 0.699219 11.5 0.699219Z" fill="#515151"/>
<path fill-rule="evenodd" clip-rule="evenodd" d="M3.39995 3.39922H7.44995C7.44995 5.63597 9.2632 7.44922 11.5 7.44922C13.7367 7.44922 15.55 5.63597 15.55 3.39922H19.5999C21.0911 3.39922 22.2999 4.60805 22.2999 6.09922V18.2492C22.2999 19.7404 21.0911 20.9492 19.5999 20.9492H3.39995C1.90878 20.9492 0.699951 19.7404 0.699951 18.2492V6.09922C0.699951 4.60805 1.90878 3.39922 3.39995 3.39922ZM6.77495 12.8492C7.89333 12.8492 8.79995 11.9426 8.79995 10.8242C8.79995 9.70584 7.89333 8.79922 6.77495 8.79922C5.65657 8.79922 4.74995 9.70584 4.74995 10.8242C4.74995 11.9426 5.65657 12.8492 6.77495 12.8492ZM10.0831 18.2492C10.1274 18.0311 10.1506 17.8054 10.1506 17.5742C10.1506 15.7103 8.63957 14.1992 6.77561 14.1992C4.91165 14.1992 3.40061 15.7103 3.40061 17.5742C3.40061 17.8054 3.42385 18.0311 3.46812 18.2492H10.0831ZM14.2 10.1492C13.4544 10.1492 12.85 10.7536 12.85 11.4992C12.85 12.2448 13.4544 12.8492 14.2 12.8492H18.2499C18.9955 12.8492 19.5999 12.2448 19.5999 11.4992C19.5999 10.7536 18.9955 10.1492 18.2499 10.1492H14.2ZM12.85 15.5492C12.85 14.8036 13.4544 14.1992 14.2 14.1992H16.9C17.6455 14.1992 18.2499 14.8036 18.2499 15.5492C18.2499 16.2948 17.6455 16.8992 16.9 16.8992H14.2C13.4544 16.8992 12.85 16.2948 12.85 15.5492Z" fill="#515151"/>
</svg>
