<svg width="19" height="19" viewBox="0 0 19 19" fill="none" xmlns="http://www.w3.org/2000/svg">
<path d="M2.75005 0.0507812C1.25888 0.0507812 0.0500488 1.25961 0.0500488 2.75078V5.45078C0.0500488 6.94195 1.25888 8.15078 2.75005 8.15078H5.45005C6.94122 8.15078 8.15005 6.94195 8.15005 5.45078V2.75078C8.15005 1.25961 6.94122 0.0507812 5.45005 0.0507812H2.75005Z" fill="#515151"/>
<path d="M2.75005 10.8508C1.25888 10.8508 0.0500488 12.0596 0.0500488 13.5508V16.2508C0.0500488 17.742 1.25888 18.9508 2.75005 18.9508H5.45005C6.94122 18.9508 8.15005 17.742 8.15005 16.2508V13.5508C8.15005 12.0596 6.94122 10.8508 5.45005 10.8508H2.75005Z" fill="#515151"/>
<path d="M10.85 2.75078C10.85 1.25961 12.0589 0.0507812 13.5501 0.0507812H16.25C17.7412 0.0507812 18.9501 1.25961 18.9501 2.75078V5.45078C18.9501 6.94195 17.7412 8.15078 16.25 8.15078H13.5501C12.0589 8.15078 10.85 6.94195 10.85 5.45078V2.75078Z" fill="#515151"/>
<path d="M10.85 13.5508C10.85 12.0596 12.0589 10.8508 13.5501 10.8508H16.25C17.7412 10.8508 18.9501 12.0596 18.9501 13.5508V16.2508C18.9501 17.742 17.7412 18.9508 16.25 18.9508H13.5501C12.0589 18.9508 10.85 17.742 10.85 16.2508V13.5508Z" fill="#515151"/>
</svg>
