<svg width="27" height="28" viewBox="0 0 27 28" fill="none" xmlns="http://www.w3.org/2000/svg">
<path fill-rule="evenodd" clip-rule="evenodd" d="M22.9525 15.6369C23.3549 15.8506 23.6653 16.1881 23.8838 16.5256C24.3092 17.2231 24.2747 18.0781 23.8608 18.8319L23.056 20.1819C22.6306 20.9019 21.8373 21.3519 21.021 21.3519C20.6186 21.3519 20.1702 21.2394 19.8023 21.0144C19.5034 20.8231 19.1585 20.7556 18.7906 20.7556C17.6524 20.7556 16.6981 21.6894 16.6636 22.8031C16.6636 24.0969 15.6059 25.1094 14.2838 25.1094H12.7202C11.3865 25.1094 10.3288 24.0969 10.3288 22.8031C10.3058 21.6894 9.35154 20.7556 8.21334 20.7556C7.83393 20.7556 7.48902 20.8231 7.2016 21.0144C6.83369 21.2394 6.37381 21.3519 5.98291 21.3519C5.15513 21.3519 4.36183 20.9019 3.93644 20.1819L3.14315 18.8319C2.71776 18.1006 2.69477 17.2231 3.12016 16.5256C3.30411 16.1881 3.64902 15.8506 4.03992 15.6369C4.36183 15.4794 4.56878 15.2206 4.76423 14.9169C5.33908 13.9494 4.99417 12.6781 4.01692 12.1044C2.87872 11.4631 2.51081 10.0344 3.16614 8.92063L3.93644 7.59312C4.60327 6.47937 6.0289 6.08563 7.1786 6.73812C8.17885 7.27813 9.47801 6.91813 10.0644 5.96187C10.2483 5.64687 10.3518 5.30937 10.3288 4.97187C10.3058 4.53312 10.4323 4.11687 10.6507 3.77937C11.0761 3.08187 11.8464 2.63187 12.6857 2.60938H14.3068C15.1575 2.60938 15.9278 3.08187 16.3532 3.77937C16.5602 4.11687 16.6981 4.53312 16.6636 4.97187C16.6407 5.30937 16.7441 5.64687 16.9281 5.96187C17.5144 6.91813 18.8136 7.27813 19.8253 6.73812C20.9635 6.08563 22.4007 6.47937 23.056 7.59312L23.8263 8.92063C24.4931 10.0344 24.1252 11.4631 22.9755 12.1044C21.9983 12.6781 21.6534 13.9494 22.2397 14.9169C22.4237 15.2206 22.6306 15.4794 22.9525 15.6369ZM10.2483 13.8706C10.2483 15.6369 11.7084 17.0431 13.5135 17.0431C15.3185 17.0431 16.7441 15.6369 16.7441 13.8706C16.7441 12.1044 15.3185 10.6869 13.5135 10.6869C11.7084 10.6869 10.2483 12.1044 10.2483 13.8706Z" fill="#515151"/>
</svg>
