<svg width="23" height="21" viewBox="0 0 23 21" fill="none" xmlns="http://www.w3.org/2000/svg">
<path fill-rule="evenodd" clip-rule="evenodd" d="M6.48945 0.687672C6.67641 0.822629 6.97791 1.13263 6.97791 1.13263C8.14839 2.22965 9.91134 4.95818 10.4775 6.34249C10.4893 6.34249 10.8251 7.16559 10.8382 7.5571V7.60921C10.8382 8.20917 10.5025 8.77037 9.96268 9.05766C9.74015 9.1761 9.19888 9.28625 8.93774 9.33939C8.85125 9.35699 8.79549 9.36834 8.79221 9.37167C8.02067 9.48925 6.83704 9.56675 5.53753 9.56675C4.17352 9.56675 2.93853 9.48925 2.17884 9.34494C2.16568 9.34494 1.47182 9.20197 1.2401 9.10977C0.905675 8.9668 0.622603 8.7049 0.442226 8.37887C0.313198 8.11831 0.25 7.84305 0.25 7.5571C0.26185 7.25645 0.455392 6.69525 0.544922 6.47344C1.11107 5.01029 2.96355 2.21629 4.09584 1.14599C4.21346 1.02662 4.34731 0.90157 4.44045 0.814555C4.49015 0.768127 4.52826 0.732527 4.54612 0.714396C4.82919 0.492586 5.17678 0.375 5.5507 0.375C5.8838 0.375 6.21823 0.479224 6.48945 0.687672ZM18.5072 8.432C18.5072 9.02128 18.0372 9.49832 17.4565 9.49832C16.8759 9.49832 16.4059 9.02128 16.4059 8.432L16.1162 3.28082C16.1162 2.52986 16.7166 1.92188 17.4565 1.92188C18.1965 1.92188 18.7955 2.52986 18.7955 3.28082L18.5072 8.432ZM21.7599 11.89C22.0943 12.0344 22.3774 12.2949 22.5578 12.621C22.6868 12.8815 22.75 13.1568 22.75 13.4441C22.7382 13.7434 22.5446 14.306 22.4538 14.5278C21.8889 15.9896 20.0351 18.7837 18.9042 19.8553C18.7885 19.9718 18.6572 20.0944 18.5642 20.1811L18.5642 20.1812L18.5641 20.1812C18.5122 20.2297 18.4723 20.2669 18.4539 20.2856C18.1695 20.5074 17.8232 20.625 17.4506 20.625C17.1149 20.625 16.7805 20.5208 16.5106 20.311C16.3236 20.1774 16.0221 19.8674 16.0221 19.8674C14.8503 18.7716 13.0887 16.0417 12.5225 14.6574C12.5094 14.6574 12.1749 13.8356 12.1618 13.4441V13.392C12.1618 12.7907 12.4962 12.2294 13.0373 11.9422C13.2594 11.825 13.7989 11.7145 14.0607 11.6609L14.0607 11.6609C14.1481 11.643 14.2045 11.6315 14.2078 11.6281C14.9793 11.5106 16.163 11.4331 17.4625 11.4331C18.8265 11.4331 20.0615 11.5106 20.8212 11.6549C20.833 11.6549 21.5282 11.7978 21.7599 11.89ZM5.54372 11.5018C4.96309 11.5018 4.49306 11.9789 4.49306 12.5681L4.20341 17.7192C4.20341 18.4702 4.80378 19.0781 5.54372 19.0781C6.28366 19.0781 6.88272 18.4702 6.88272 17.7192L6.59438 12.5681C6.59438 11.9789 6.12435 11.5018 5.54372 11.5018Z" fill="#515151"/>
</svg>
