<svg width="25" height="21" viewBox="0 0 25 21" fill="none" xmlns="http://www.w3.org/2000/svg">
<path d="M16.55 4.10078C16.55 6.33753 14.7367 8.15078 12.5 8.15078C10.2632 8.15078 8.44998 6.33753 8.44998 4.10078C8.44998 1.86403 10.2632 0.0507812 12.5 0.0507812C14.7367 0.0507812 16.55 1.86403 16.55 4.10078Z" fill="#515151"/>
<path d="M23.3 6.80078C23.3 8.29195 22.0911 9.50078 20.6 9.50078C19.1088 9.50078 17.9 8.29195 17.9 6.80078C17.9 5.30961 19.1088 4.10078 20.6 4.10078C22.0911 4.10078 23.3 5.30961 23.3 6.80078Z" fill="#515151"/>
<path d="M17.9 16.2508C17.9 13.2684 15.4823 10.8508 12.5 10.8508C9.51764 10.8508 7.09998 13.2684 7.09998 16.2508V20.3008H17.9V16.2508Z" fill="#515151"/>
<path d="M7.09998 6.80078C7.09998 8.29195 5.89114 9.50078 4.39998 9.50078C2.90881 9.50078 1.69998 8.29195 1.69998 6.80078C1.69998 5.30961 2.90881 4.10078 4.39998 4.10078C5.89114 4.10078 7.09998 5.30961 7.09998 6.80078Z" fill="#515151"/>
<path d="M20.6 20.3008V16.2508C20.6 14.8277 20.233 13.4903 19.5885 12.3281C19.9118 12.245 20.2507 12.2008 20.6 12.2008C22.8367 12.2008 24.65 14.014 24.65 16.2508V20.3008H20.6Z" fill="#515151"/>
<path d="M5.41148 12.3281C4.76697 13.4903 4.39998 14.8277 4.39998 16.2508V20.3008H0.349976V16.2508C0.349976 14.014 2.16322 12.2008 4.39998 12.2008C4.74923 12.2008 5.08816 12.245 5.41148 12.3281Z" fill="#515151"/>
</svg>
