<svg width="23" height="23" viewBox="0 0 23 23" fill="none" xmlns="http://www.w3.org/2000/svg">
<path d="M22.1148 0.90473C21.5521 0.327173 20.7192 0.112004 19.9427 0.338498L1.834 5.60446C1.01466 5.83209 0.433923 6.48552 0.277484 7.31562C0.117669 8.16044 0.675897 9.23289 1.4052 9.68134L7.06739 13.1614C7.64813 13.5181 8.39768 13.4287 8.87825 12.944L15.362 6.41984C15.6884 6.0801 16.2286 6.0801 16.555 6.41984C16.8814 6.74825 16.8814 7.28051 16.555 7.62025L10.06 14.1455C9.57829 14.6291 9.48825 15.3822 9.84277 15.9665L13.3024 21.6855C13.7076 22.365 14.4054 22.75 15.1707 22.75C15.2607 22.75 15.362 22.75 15.4521 22.7387C16.3299 22.6254 17.0277 22.0252 17.2866 21.1759L22.655 3.09039C22.8914 2.32031 22.6775 1.48229 22.1148 0.90473Z" fill="#515151"/>
</svg>
